<?xml version="1.0" standalone="no"?>
<!DOCTYPE svg PUBLIC "-//W3C//DTD SVG 20010904//EN"
 "http://www.w3.org/TR/2001/REC-SVG-20010904/DTD/svg10.dtd">
<svg version="1.0" xmlns="http://www.w3.org/2000/svg"
 width="116.000000pt" height="116.000000pt" viewBox="0 0 116.000000 116.000000"
 preserveAspectRatio="xMidYMid meet">
<metadata>
Created by potrace 1.11, written by Peter Selinger 2001-2013
</metadata>
<g transform="translate(0.000000,116.000000) scale(0.100000,-0.100000)"
fill="#000000" stroke="none">
<path d="M90 947 c-56 -29 -83 -77 -77 -137 2 -25 35 -121 77 -220 40 -96 80
-193 89 -214 61 -149 98 -186 180 -182 86 3 150 67 146 146 -2 30 -41 141 -90
255 -7 17 -38 91 -70 165 -61 146 -89 185 -144 200 -51 14 -63 13 -111 -13z"/>
<path d="M519 960 c-67 -20 -109 -75 -109 -142 0 -27 44 -147 113 -308 6 -14
11 -27 12 -30 20 -57 98 -227 112 -243 29 -32 66 -45 116 -43 77 3 140 64 142
139 1 23 -2 49 -7 57 -4 8 -40 94 -79 190 -139 343 -150 361 -218 380 -41 11
-46 11 -82 0z"/>
<path d="M901 955 c-58 -26 -91 -76 -91 -138 0 -42 51 -172 84 -214 88 -109
272 -31 259 111 -5 61 -65 187 -104 218 -43 34 -102 43 -148 23z"/>
</g>
</svg>
